<svg xmlns="http://www.w3.org/2000/svg" width="25" height="17" viewBox="0 0 25 17"><g transform="translate(848 -267)"><path d="M -824.8887329101563 283.5003967285156 L -846.1107177734375 283.5003967285156 C -846.8766479492188 283.5003967285156 -847.4998168945313 282.8772583007813 -847.4998168945313 282.1112976074219 C -847.4998168945313 281.3453369140625 -846.8766479492188 280.7221984863281 -846.1107177734375 280.7221984863281 L -824.8887329101563 280.7221984863281 C -824.122802734375 280.7221984863281 -823.4996337890625 281.3453369140625 -823.4996337890625 282.1112976074219 C -823.4996337890625 282.8772583007813 -824.122802734375 283.5003967285156 -824.8887329101563 283.5003967285156 Z M -833.8887329101563 276.8890075683594 L -846.1107177734375 276.8890075683594 C -846.8766479492188 276.8890075683594 -847.4998168945313 276.265869140625 -847.4998168945313 275.4999084472656 C -847.4998168945313 274.7339477539063 -846.8766479492188 274.1108093261719 -846.1107177734375 274.1108093261719 L -833.8887329101563 274.1108093261719 C -833.122802734375 274.1108093261719 -832.4996337890625 274.7339477539063 -832.4996337890625 275.4999084472656 C -832.4996337890625 276.265869140625 -833.122802734375 276.8890075683594 -833.8887329101563 276.8890075683594 Z M -824.8887329101563 270.2776184082031 L -846.1107177734375 270.2776184082031 C -846.8766479492188 270.2776184082031 -847.4998168945313 269.6544799804688 -847.4998168945313 268.8885192871094 C -847.4998168945313 268.123046875 -846.8766479492188 267.5003051757813 -846.1107177734375 267.5003051757813 L -824.8887329101563 267.5003051757813 C -824.122802734375 267.5003051757813 -823.4996337890625 268.123046875 -823.4996337890625 268.8885192871094 C -823.4996337890625 269.6544799804688 -824.122802734375 270.2776184082031 -824.8887329101563 270.2776184082031 Z" stroke="none"/><path d="M -824.8887329101563 283.0003967285156 C -824.3984985351563 283.0003967285156 -823.9996337890625 282.6015319824219 -823.9996337890625 282.1112976074219 C -823.9996337890625 281.6210327148438 -824.3984985351563 281.2221984863281 -824.8887329101563 281.2221984863281 L -846.1107177734375 281.2221984863281 C -846.6009521484375 281.2221984863281 -846.9998168945313 281.6210327148438 -846.9998168945313 282.1112976074219 C -846.9998168945313 282.6015319824219 -846.6009521484375 283.0003967285156 -846.1107177734375 283.0003967285156 L -824.8887329101563 283.0003967285156 M -833.8887329101563 276.3890075683594 C -833.3984985351563 276.3890075683594 -832.9996337890625 275.9901428222656 -832.9996337890625 275.4999084472656 C -832.9996337890625 275.0096435546875 -833.3984985351563 274.6108093261719 -833.8887329101563 274.6108093261719 L -846.1107177734375 274.6108093261719 C -846.6009521484375 274.6108093261719 -846.9998168945313 275.0096435546875 -846.9998168945313 275.4999084472656 C -846.9998168945313 275.9901428222656 -846.6009521484375 276.3890075683594 -846.1107177734375 276.3890075683594 L -833.8887329101563 276.3890075683594 M -824.8887329101563 269.7776184082031 C -824.3984985351563 269.7776184082031 -823.9996337890625 269.3787536621094 -823.9996337890625 268.8885192871094 C -823.9996337890625 268.3987426757813 -824.3984985351563 268.0003051757813 -824.8887329101563 268.0003051757813 L -846.1107177734375 268.0003051757813 C -846.6009521484375 268.0003051757813 -846.9998168945313 268.3987426757813 -846.9998168945313 268.8885192871094 C -846.9998168945313 269.3787536621094 -846.6009521484375 269.7776184082031 -846.1107177734375 269.7776184082031 L -824.8887329101563 269.7776184082031 M -824.8887329101563 284.0003967285156 L -846.1107177734375 284.0003967285156 C -847.1547241210938 284.0003967285156 -847.9998168945313 283.1544189453125 -847.9998168945313 282.1112976074219 C -847.9998168945313 281.0682067871094 -847.1547241210938 280.2221984863281 -846.1107177734375 280.2221984863281 L -824.8887329101563 280.2221984863281 C -823.8456420898438 280.2221984863281 -822.9996337890625 281.0682067871094 -822.9996337890625 282.1112976074219 C -822.9996337890625 283.1544189453125 -823.8456420898438 284.0003967285156 -824.8887329101563 284.0003967285156 Z M -833.8887329101563 277.3890075683594 L -846.1107177734375 277.3890075683594 C -847.1547241210938 277.3890075683594 -847.9998168945313 276.5429992675781 -847.9998168945313 275.4999084472656 C -847.9998168945313 274.4568176269531 -847.1547241210938 273.6108093261719 -846.1107177734375 273.6108093261719 L -833.8887329101563 273.6108093261719 C -832.8456420898438 273.6108093261719 -831.9996337890625 274.4568176269531 -831.9996337890625 275.4999084472656 C -831.9996337890625 276.5429992675781 -832.8456420898438 277.3890075683594 -833.8887329101563 277.3890075683594 Z M -824.8887329101563 270.7776184082031 L -846.1107177734375 270.7776184082031 C -847.1547241210938 270.7776184082031 -847.9998168945313 269.9324951171875 -847.9998168945313 268.8885192871094 C -847.9998168945313 267.8453979492188 -847.1547241210938 267.0003051757813 -846.1107177734375 267.0003051757813 L -824.8887329101563 267.0003051757813 C -823.8456420898438 267.0003051757813 -822.9996337890625 267.8453979492188 -822.9996337890625 268.8885192871094 C -822.9996337890625 269.9324951171875 -823.8456420898438 270.7776184082031 -824.8887329101563 270.7776184082031 Z" stroke="none"/></g></svg>